# xmcd
#
# Track frame offsets: 
#        150
#        25926
#        40000
#        59612
#        75934
#        102899
#        121460
#        139409
#        156868
#        180651
#
# Disc length: 2738 seconds
#
# Revision: 0
# Processed by: cddbd v1.5.2PL0 Copyright (c) Steve Scherf et al.
# Submitted via: ExactAudioCopy v1.0b2
#
DISCID=7e0ab00a
DTITLE=铃木常吉 - 望乡
DYEAR=1900
DGENRE=
TTITLE0=看的到海的坡道
TTITLE1=威士忌藍調
TTITLE2=鴨子
TTITLE3=Dirty Old Town
TTITLE4=小雞的夢
TTITLE5=拂曉的響動
TTITLE6=在寂寞的時候
TTITLE7=大感情
TTITLE8=鉛的軍隊
TTITLE9=在水中的女人
EXTD=
EXTT0=
EXTT1=
EXTT2=
EXTT3=
EXTT4=
EXTT5=
EXTT6=
EXTT7=
EXTT8=
EXTT9=
PLAYORDER=
